<?xml version="1.0" standalone="no"?>
<!DOCTYPE svg PUBLIC "-//W3C//DTD SVG 20010904//EN"
 "http://www.w3.org/TR/2001/REC-SVG-20010904/DTD/svg10.dtd">
<svg version="1.0" xmlns="http://www.w3.org/2000/svg"
 width="666.000000pt" height="375.000000pt" viewBox="0 0 666.000000 375.000000"
 preserveAspectRatio="xMidYMid meet">
<metadata>
Created by potrace 1.10, written by Peter Selinger 2001-2011
</metadata>
<g transform="translate(0.000000,375.000000) scale(0.100000,-0.100000)"
fill="#40ceb2" stroke="none">
<path d="M2075 3733 c-56 -7 -173 -33 -200 -43 -15 -6 -48 -15 -72 -20 -96
-22 -313 -140 -439 -240 -202 -159 -337 -340 -458 -615 -50 -112 -95 -323 -96
-447 l0 -46 62 64 c90 94 230 182 333 209 31 8 67 23 82 35 31 24 25 25 -24 5
-19 -8 -45 -15 -57 -15 -12 0 -27 -5 -34 -12 -7 -7 -12 -9 -12 -5 0 20 -234
-128 -279 -177 -36 -39 -45 -33 -36 27 4 28 9 72 11 96 6 57 64 230 117 346
80 177 224 361 387 497 56 46 182 129 230 151 8 4 31 17 50 28 59 36 234 97
327 114 15 2 39 7 53 10 14 3 45 8 70 12 25 3 59 12 75 19 l30 13 -45 -1 c-25
0 -58 -3 -75 -5z"/>
<path d="M2385 3726 c17 -7 50 -16 75 -19 64 -8 214 -43 290 -67 146 -47 351
-167 476 -276 86 -76 242 -258 274 -320 14 -27 30 -56 36 -64 37 -49 99 -191
123 -282 15 -58 -7 -49 -85 38 -57 62 -83 82 -149 114 -44 21 -109 45 -145 53
-65 16 -79 19 -180 37 -83 14 -136 38 -168 74 -37 42 -114 83 -172 91 -25 3
-59 13 -75 21 -17 9 -55 16 -85 17 -49 1 -62 -3 -125 -44 -38 -25 -117 -69
-174 -99 -58 -29 -125 -66 -150 -81 -25 -16 -52 -29 -60 -29 -9 0 -67 18 -131
39 -109 37 -119 39 -190 32 -62 -7 -95 -18 -190 -65 -114 -56 -232 -134 -224
-148 2 -3 0 -9 -6 -13 -5 -3 -10 -12 -10 -18 0 -7 13 2 28 19 38 43 67 62 221
139 126 64 138 68 205 69 54 1 82 -4 118 -21 26 -12 81 -32 122 -45 l75 -22
53 36 c29 19 102 59 162 89 60 29 121 63 135 74 35 29 112 65 140 65 12 0 43
-9 69 -19 26 -11 67 -22 90 -25 57 -8 109 -36 152 -80 49 -51 72 -62 175 -81
300 -56 351 -79 483 -217 55 -56 112 -118 127 -136 15 -18 29 -31 32 -28 7 7
-57 235 -84 300 -32 78 -115 226 -169 302 -61 86 -234 260 -328 329 -199 146
-492 257 -715 270 -71 5 -74 4 -46 -9z"/>
<path d="M1732 2909 c-40 -12 -269 -128 -312 -159 -18 -13 -47 -46 -65 -74
-47 -73 -75 -95 -141 -112 -94 -25 -220 -98 -303 -178 -67 -65 -169 -192 -160
-200 2 -2 40 7 83 20 104 31 189 39 246 23 80 -23 147 -16 220 20 69 35 185
105 260 156 25 17 72 44 105 60 51 24 73 29 147 29 87 1 87 1 125 -35 21 -21
64 -48 95 -63 l57 -25 75 16 c82 18 133 11 171 -24 34 -30 89 -69 122 -86 26
-14 60 -16 190 -14 154 2 160 1 253 -30 171 -57 410 -110 433 -96 5 3 -17 16
-48 28 -88 36 -163 85 -219 143 -28 29 -67 63 -86 74 -19 12 -48 32 -63 45
-43 35 -189 101 -273 123 -106 29 -149 53 -226 127 -36 36 -75 71 -87 79 -21
15 -132 49 -276 85 -49 12 -117 35 -150 51 -62 29 -113 34 -173 17z m151 -50
c64 -31 225 -80 385 -116 12 -3 64 -43 114 -89 99 -90 139 -113 247 -143 99
-27 183 -66 276 -127 84 -55 174 -139 162 -151 -4 -3 -65 11 -135 33 -124 38
-130 39 -282 39 -85 1 -160 2 -167 3 -7 1 -43 25 -80 54 -92 70 -136 82 -238
68 -93 -14 -118 -7 -206 60 -30 22 -65 43 -78 47 -40 10 -154 -4 -210 -27 -47
-18 -187 -101 -201 -119 -7 -8 -66 -42 -165 -93 -90 -46 -128 -51 -233 -28
-50 11 -77 11 -139 2 -42 -7 -79 -10 -82 -7 -3 4 32 42 78 85 89 84 181 140
284 171 77 23 117 52 158 113 50 74 69 88 234 171 167 84 204 91 278 54z"/>
<path d="M817 1960 c-33 -26 -44 -79 -26 -123 7 -17 37 -56 67 -85 41 -41 52
-59 50 -79 -6 -53 -69 -56 -76 -4 -2 15 -10 21 -28 21 -20 0 -24 -5 -24 -29 0
-16 9 -39 19 -52 16 -20 29 -24 71 -24 45 0 55 4 77 29 38 44 28 92 -34 162
-85 98 -89 103 -77 122 17 26 58 22 62 -5 3 -18 10 -23 33 -23 25 0 29 4 29
26 0 36 -50 84 -88 84 -16 0 -41 -9 -55 -20z"/>
<path d="M1050 1786 l0 -196 31 0 30 0 -1 113 c-1 61 -1 117 -1 122 2 18 21
-19 21 -40 0 -11 12 -59 27 -107 27 -87 28 -88 60 -88 l33 0 0 193 0 192 -31
1 -31 1 4 -128 c1 -71 0 -129 -3 -129 -3 0 -14 30 -24 68 -9 37 -24 86 -31
110 -8 23 -14 49 -14 57 0 8 -9 15 -19 15 -11 0 -26 3 -35 6 -14 5 -16 -15
-16 -190z"/>
<path d="M1388 1964 c-39 -21 -51 -75 -46 -216 3 -106 5 -120 26 -140 17 -18
34 -23 73 -23 82 0 89 15 89 192 l0 145 -29 29 c-33 33 -70 37 -113 13z m77
-55 c4 -6 7 -66 7 -134 0 -68 -3 -128 -7 -134 -10 -18 -43 -12 -55 8 -14 28
-13 244 2 259 15 15 45 16 53 1z"/>
<path d="M1615 1920 c4 -30 15 -107 26 -170 10 -63 19 -125 19 -136 0 -17 7
-23 34 -26 l34 -4 6 61 c4 33 9 88 13 123 6 64 23 87 23 31 0 -18 5 -72 12
-120 l12 -89 32 0 c36 0 44 12 44 73 0 23 9 96 20 162 25 153 26 153 -4 151
-28 -1 -31 -12 -41 -136 -3 -41 -8 -86 -11 -99 -8 -37 -24 -6 -24 46 0 23 -5
75 -11 115 -10 71 -12 73 -38 73 l-28 0 -13 -127 c-7 -71 -16 -128 -20 -128
-4 0 -11 39 -15 88 -12 152 -16 165 -48 166 l-29 2 7 -56z"/>
<path d="M1980 1966 c0 -8 7 -31 16 -52 34 -80 54 -175 54 -252 l0 -79 30 5
30 4 0 72 c0 57 8 95 40 190 23 65 40 120 38 121 -2 2 -15 1 -31 -2 -24 -5
-30 -14 -48 -74 -12 -38 -24 -69 -28 -69 -3 0 -15 32 -27 71 -18 65 -23 72
-47 75 -17 2 -27 -2 -27 -10z"/>
<path d="M2560 1780 l0 -195 30 0 30 0 0 78 c0 60 3 77 14 77 14 0 24 -24 46
-106 9 -36 15 -42 40 -46 37 -6 37 -1 5 93 -21 62 -22 75 -10 82 21 11 37 83
30 127 -10 56 -35 74 -116 80 l-69 5 0 -195z m120 121 c14 -26 13 -74 -2 -89
-7 -7 -22 -12 -35 -12 -21 0 -23 4 -23 60 0 57 1 60 25 60 14 0 29 -8 35 -19z"/>
<path d="M2840 1973 c-1 -2 -1 -89 -1 -195 l0 -192 28 0 28 0 0 194 0 193 -27
1 c-16 1 -28 0 -28 -1z"/>
<path d="M2977 1973 c-3 -2 14 -104 47 -288 9 -49 16 -92 16 -95 0 -3 17 -4
39 -2 35 3 39 7 44 35 3 18 17 99 31 180 14 82 26 154 26 160 0 7 -12 12 -27
11 -28 -1 -28 -3 -45 -105 -9 -57 -17 -123 -17 -146 -1 -53 -21 -68 -22 -16 0
21 -8 89 -17 152 -17 114 -17 114 -45 115 -15 1 -29 1 -30 -1z"/>
<path d="M3260 1780 l0 -195 85 0 85 0 0 28 c0 28 -1 28 -52 26 l-53 -3 -3 57
-3 57 46 0 c44 0 45 1 45 31 0 30 -1 30 -42 27 l-43 -3 -3 59 -3 58 55 -4 56
-3 0 30 0 30 -85 0 -85 0 0 -195z"/>
<path d="M3520 1779 l0 -197 25 2 c24 1 25 3 25 79 0 70 2 77 20 77 11 0 20
-3 20 -7 0 -5 9 -39 19 -77 16 -63 20 -69 45 -71 29 -1 32 9 15 52 -25 66 -27
112 -8 150 21 42 23 72 9 125 -14 48 -21 52 -102 58 l-68 5 0 -196z m109 127
c7 -8 11 -34 9 -58 -3 -40 -5 -43 -35 -46 l-33 -3 0 60 c0 58 1 61 24 61 13 0
29 -6 35 -14z"/>
<path d="M1597 1444 c-12 -12 -8 -159 5 -172 29 -29 78 -7 78 35 0 14 -6 23
-15 23 -8 0 -15 -9 -15 -20 0 -11 -7 -20 -15 -20 -12 0 -15 14 -15 70 0 56 3
70 15 70 8 0 15 -9 15 -20 0 -11 7 -20 16 -20 11 0 14 8 12 28 -3 23 -8 27
-38 30 -20 2 -39 0 -43 -4z"/>
<path d="M1771 1383 c-6 -37 -14 -80 -17 -95 -4 -21 -2 -28 10 -28 9 0 16 8
16 20 0 13 7 20 19 20 10 0 21 -9 24 -20 3 -11 13 -20 22 -20 12 0 15 5 9 22
-3 12 -12 54 -18 92 -10 60 -16 71 -33 74 -18 3 -22 -5 -32 -65z m39 -18 c0
-19 -4 -35 -10 -35 -11 0 -14 53 -3 63 11 12 13 8 13 -28z"/>
<path d="M1930 1355 c0 -78 3 -95 15 -95 11 0 15 11 15 40 0 49 15 53 24 5 7
-34 22 -53 33 -41 4 3 1 23 -5 43 -8 24 -8 41 -2 47 6 6 10 27 10 47 0 40 -11
49 -61 49 l-29 0 0 -95z m58 42 c2 -19 -1 -27 -12 -27 -11 0 -16 10 -16 31 0
38 24 35 28 -4z"/>
<path d="M2111 1373 c-7 -43 -15 -86 -17 -95 -3 -11 0 -18 9 -18 8 0 17 9 20
20 3 11 12 20 21 20 9 0 16 -8 16 -20 0 -12 7 -20 16 -20 13 0 15 7 11 30 -4
16 -9 59 -13 95 -6 59 -9 65 -29 65 -20 0 -23 -8 -34 -77z m42 -10 c5 -25 3
-33 -8 -33 -16 0 -18 12 -9 48 8 28 9 26 17 -15z"/>
<path d="M2260 1422 c4 -16 11 -57 15 -91 4 -40 12 -64 21 -68 22 -8 26 0 40
79 17 96 17 108 -1 108 -11 0 -15 -12 -16 -47 -1 -84 -16 -96 -24 -20 -6 55
-10 67 -25 67 -16 0 -17 -5 -10 -28z"/>
<path d="M2450 1448 c0 -2 -7 -41 -15 -88 -18 -104 -18 -100 0 -100 8 0 15 9
15 20 0 11 6 20 14 20 7 0 16 -9 19 -20 3 -11 13 -20 22 -20 12 0 15 5 10 17
-3 10 -11 53 -17 95 -9 65 -14 78 -30 78 -10 0 -18 -1 -18 -2z m30 -88 c0 -16
-4 -30 -10 -30 -5 0 -10 14 -10 30 0 17 5 30 10 30 6 0 10 -13 10 -30z"/>
<path d="M2595 1355 c0 -67 4 -95 12 -95 7 0 13 20 15 53 l3 52 18 -52 c11
-31 25 -53 33 -53 11 0 14 20 14 95 0 80 -3 95 -16 95 -12 0 -15 -10 -13 -50
4 -69 -7 -72 -22 -6 -8 39 -17 56 -28 56 -14 0 -16 -15 -16 -95z"/>
<path d="M2777 1443 c-17 -16 -5 -61 23 -88 30 -29 40 -65 19 -65 -7 0 -18 8
-25 18 -12 16 -13 16 -19 -1 -9 -22 11 -47 39 -47 53 0 61 53 16 103 -30 34
-39 67 -20 67 6 0 13 -7 16 -15 7 -16 34 -21 34 -6 0 28 -15 41 -44 41 -18 0
-36 -3 -39 -7z"/>
</g>
</svg>
